<svg xmlns="http://www.w3.org/2000/svg" xmlns:xlink="http://www.w3.org/1999/xlink" width="20" height="22" viewBox="0 0 20 22"><defs><path id="9qxua" d="M98.059 584.998a3.129 3.129 0 0 0-3.125-3.125 3.129 3.129 0 0 0-3.125 3.125 3.129 3.129 0 0 0 3.125 3.125 3.129 3.129 0 0 0 3.125-3.125zm4.25 1.37l1.664.962a.47.47 0 0 1 .213.546 9.672 9.672 0 0 1-2.136 3.695.47.47 0 0 1-.58.088l-1.663-.961c-.7.6-1.504 1.065-2.373 1.372v1.921a.47.47 0 0 1-.367.458 9.764 9.764 0 0 1-4.266 0 .47.47 0 0 1-.367-.458v-1.92a7.483 7.483 0 0 1-2.374-1.373l-1.663.96a.47.47 0 0 1-.58-.087 9.673 9.673 0 0 1-2.136-3.695.47.47 0 0 1 .213-.546l1.665-.961a7.558 7.558 0 0 1 0-2.743l-1.664-.96a.47.47 0 0 1-.214-.547 9.672 9.672 0 0 1 2.137-3.694.47.47 0 0 1 .579-.089l1.663.961c.7-.6 1.505-1.065 2.374-1.372v-1.921c0-.22.152-.41.366-.458a9.764 9.764 0 0 1 4.266 0 .47.47 0 0 1 .368.458v1.92a7.483 7.483 0 0 1 2.373 1.373l1.664-.96a.47.47 0 0 1 .579.087 9.673 9.673 0 0 1 2.136 3.695.47.47 0 0 1-.213.547l-1.665.96a7.558 7.558 0 0 1 0 2.743z"/><path id="9qxue" d="M85 596v-22h20v22zm9.934-6.877a3.129 3.129 0 0 1-3.125-3.125 3.129 3.129 0 0 1 3.125-3.125 3.129 3.129 0 0 1 3.125 3.125 3.129 3.129 0 0 1-3.125 3.125zm7.374-4.497l1.665-.96a.47.47 0 0 0 .213-.547 9.673 9.673 0 0 0-2.136-3.695.47.47 0 0 0-.58-.088l-1.663.961a7.483 7.483 0 0 0-2.373-1.372v-1.921a.47.47 0 0 0-.368-.458 9.764 9.764 0 0 0-4.266 0 .47.47 0 0 0-.366.458v1.92a7.483 7.483 0 0 0-2.374 1.373l-1.663-.96a.47.47 0 0 0-.58.088 9.672 9.672 0 0 0-2.136 3.694.47.47 0 0 0 .214.547l1.664.96a7.558 7.558 0 0 0 0 2.743l-1.665.96a.47.47 0 0 0-.213.547 9.673 9.673 0 0 0 2.137 3.695.47.47 0 0 0 .579.088l1.663-.961c.7.6 1.505 1.065 2.374 1.372v1.921c0 .22.153.41.367.458 1.434.323 2.901.307 4.266 0a.47.47 0 0 0 .367-.458v-1.92a7.484 7.484 0 0 0 2.373-1.373l1.664.96c.19.11.43.074.579-.087a9.672 9.672 0 0 0 2.136-3.695.47.47 0 0 0-.213-.546l-1.665-.961a7.558 7.558 0 0 0 0-2.743z"/><mask id="9qxuc" width="2" height="2" x="-1" y="-1"><path fill="#fff" d="M85 575h20v20H85z"/><use xlink:href="#9qxua"/></mask><filter id="9qxub" width="42" height="43" x="74" y="564" filterUnits="userSpaceOnUse"><feOffset dy="1" in="SourceGraphic" result="FeOffset1054Out"/><feGaussianBlur in="FeOffset1054Out" result="FeGaussianBlur1055Out" stdDeviation="0.4 0.4"/></filter><linearGradient id="9qxud" x1="86.78" x2="103.53" y1="576.48" y2="593.98" gradientUnits="userSpaceOnUse"><stop offset="0" stop-color="#5387ec"/><stop offset="1" stop-color="#3b7af4"/></linearGradient><filter id="9qxuf" width="200%" height="200%" x="-50%" y="-50%"><feGaussianBlur in="SourceGraphic" result="FeGaussianBlur1063Out" stdDeviation="0 0"/></filter><mask id="9qxug"><use fill="#fff" xlink:href="#9qxua"/></mask><clipPath id="9qxuh"><use fill="#fff" xlink:href="#9qxua"/></clipPath></defs><g><g transform="translate(-85 -575)"><g filter="url(#9qxub)"><use fill="none" stroke-opacity=".15" stroke-width="0" mask="url(&quot;#9qxuc&quot;)" xlink:href="#9qxua"/><use fill="#161d25" fill-opacity=".15" xlink:href="#9qxua"/></g><use fill="url(#9qxud)" xlink:href="#9qxua"/><use fill="#fff" fill-opacity=".11" stroke="#fff" stroke-opacity=".11" stroke-width="2" filter="url(#9qxuf)" mask="url(&quot;#9qxug&quot;)" xlink:href="#9qxue"/><use fill="#fff" fill-opacity="0" stroke="#3670de" stroke-miterlimit="50" stroke-width="2" clip-path="url(&quot;#9qxuh&quot;)" xlink:href="#9qxua"/></g></g></svg>