<svg xmlns="http://www.w3.org/2000/svg" xmlns:xlink="http://www.w3.org/1999/xlink" width="23" height="19" viewBox="0 0 23 19"><defs><path id="dxlva" d="M103.493 515.81H86.827c-.92 0-1.667.756-1.667 1.688v1.687h20v-1.688c0-.931-.747-1.687-1.667-1.687zm-16.11 11.672c0-.232.187-.422.417-.422h2.508c.23 0 .418.19.418.422v1.406a.421.421 0 0 1-.418.422H87.8a.421.421 0 0 1-.418-.422zm4.444 0a.42.42 0 0 1 .416-.422h4.713a.42.42 0 0 1 .416.422v1.406a.42.42 0 0 1-.416.422h-4.713a.42.42 0 0 1-.416-.422zm-6.667 2.383c0 .93.747 1.685 1.667 1.685h16.666c.92 0 1.667-.755 1.667-1.685v-6.18h-20z"/><path id="dxlve" d="M85 533v-19h21v19zm18.493-16.19H86.827c-.92 0-1.667.756-1.667 1.688v1.687h20v-1.688c0-.931-.747-1.687-1.667-1.687zm-16.11 11.672c0-.232.187-.422.417-.422h2.508c.23 0 .418.19.418.422v1.406a.421.421 0 0 1-.418.422H87.8a.421.421 0 0 1-.418-.422zm4.444 0a.42.42 0 0 1 .416-.422h4.713a.42.42 0 0 1 .416.422v1.406a.42.42 0 0 1-.416.422h-4.713a.42.42 0 0 1-.416-.422zm-6.667 2.383c0 .93.747 1.685 1.667 1.685h16.666c.92 0 1.667-.755 1.667-1.685v-6.18h-20z"/><mask id="dxlvc" width="2" height="2" x="-1" y="-1"><path fill="#fff" d="M85 515h21v17H85z"/><use xlink:href="#dxlva"/></mask><filter id="dxlvb" width="43" height="40" x="74" y="504" filterUnits="userSpaceOnUse"><feOffset dy="1" in="SourceGraphic" result="FeOffset1023Out"/><feGaussianBlur in="FeOffset1023Out" result="FeGaussianBlur1024Out" stdDeviation="0.4 0.4"/></filter><linearGradient id="dxlvd" x1="86.37" x2="104.43" y1="516.76" y2="530.98" gradientUnits="userSpaceOnUse"><stop offset="0" stop-color="#5387ec"/><stop offset="1" stop-color="#3b7af4"/></linearGradient><filter id="dxlvf" width="200%" height="200%" x="-50%" y="-50%"><feGaussianBlur in="SourceGraphic" result="FeGaussianBlur1032Out" stdDeviation="0 0"/></filter><mask id="dxlvg"><use fill="#fff" xlink:href="#dxlva"/></mask><clipPath id="dxlvh"><use fill="#fff" xlink:href="#dxlva"/></clipPath></defs><g><g transform="translate(-84 -515)"><g filter="url(#dxlvb)"><use fill="none" stroke-opacity=".15" stroke-width="0" mask="url(&quot;#dxlvc&quot;)" xlink:href="#dxlva"/><use fill="#161d25" fill-opacity=".15" xlink:href="#dxlva"/></g><use fill="url(#dxlvd)" xlink:href="#dxlva"/><use fill="#fff" fill-opacity=".11" stroke="#fff" stroke-opacity=".11" stroke-width="2" filter="url(#dxlvf)" mask="url(&quot;#dxlvg&quot;)" xlink:href="#dxlve"/><use fill="#fff" fill-opacity="0" stroke="#3670de" stroke-miterlimit="50" stroke-width="2" clip-path="url(&quot;#dxlvh&quot;)" xlink:href="#dxlva"/></g></g></svg>