<svg xmlns="http://www.w3.org/2000/svg" xmlns:xlink="http://www.w3.org/1999/xlink" width="23" height="17" viewBox="0 0 23 17"><defs><path id="2j9ya" d="M103.08 456.031c0 .26-.21.469-.469.469H86.05a.469.469 0 0 1-.469-.469v-.312c0-.26.21-.469.469-.469h16.562c.26 0 .469.21.469.469zm-1.25 3.75c0 .26-.21.469-.469.469H96.05a.469.469 0 0 1-.469-.469v-.312c0-.26.21-.469.469-.469h5.312c.26 0 .469.21.469.469zm0 2.5c0 .26-.21.469-.469.469H96.05a.469.469 0 0 1-.469-.469v-.312c0-.26.21-.469.469-.469h5.312c.26 0 .469.21.469.469zm0 2.5c0 .26-.21.469-.469.469H96.05a.469.469 0 0 1-.469-.469v-.312c0-.26.21-.469.469-.469h5.312c.26 0 .469.21.469.469zm-13.594-4.067a2.339 2.339 0 1 1 4.678 0 2.339 2.339 0 0 1-4.678 0zm6.094 4.465c0 .39-.315.706-.703.706h-6.094a.704.704 0 0 1-.703-.706v-.544c0-.648.44-1.212 1.065-1.37l1.045-.261c.852.615 2.183.792 3.28 0l1.045.262a1.41 1.41 0 0 1 1.065 1.369zM102.455 454h-16.25c-1.036 0-1.875.84-1.875 1.875v11.25c0 1.036.84 1.875 1.875 1.875h16.25c1.036 0 1.875-.84 1.875-1.875v-11.25c0-1.036-.84-1.875-1.875-1.875z"/><path id="2j9ye" d="M84 470v-17h21v17h-2.545c1.036 0 1.875-.84 1.875-1.875v-11.25c0-1.036-.84-1.875-1.875-1.875h-16.25c-1.036 0-1.875.84-1.875 1.875v11.25c0 1.036.84 1.875 1.875 1.875zm19.08-12.969c0 .26-.21.469-.469.469H86.05a.469.469 0 0 1-.469-.469v-.312c0-.26.21-.469.469-.469h16.562c.26 0 .469.21.469.469zm-1.25 3.75c0 .26-.21.469-.469.469H96.05a.469.469 0 0 1-.469-.469v-.312c0-.26.21-.469.469-.469h5.312c.26 0 .469.21.469.469zm0 2.5c0 .26-.21.469-.469.469H96.05a.469.469 0 0 1-.469-.469v-.312c0-.26.21-.469.469-.469h5.312c.26 0 .469.21.469.469zm0 2.5c0 .26-.21.469-.469.469H96.05a.469.469 0 0 1-.469-.469v-.312c0-.26.21-.469.469-.469h5.312c.26 0 .469.21.469.469zm-13.594-4.067a2.339 2.339 0 1 1 4.678 0 2.339 2.339 0 0 1-4.678 0zm6.094 4.465c0 .39-.315.706-.703.706h-6.094a.704.704 0 0 1-.703-.706v-.544c0-.648.44-1.212 1.065-1.37l1.045-.261c.852.615 2.183.792 3.28 0l1.045.262a1.41 1.41 0 0 1 1.065 1.369z"/><mask id="2j9yc" width="2" height="2" x="-1" y="-1"><path fill="#fff" d="M84 454h21v15H84z"/><use xlink:href="#2j9ya"/></mask><filter id="2j9yb" width="43" height="38" x="73" y="443" filterUnits="userSpaceOnUse"><feOffset dy="1" in="SourceGraphic" result="FeOffset1085Out"/><feGaussianBlur in="FeOffset1085Out" result="FeGaussianBlur1086Out" stdDeviation="0.4 0.4"/></filter><linearGradient id="2j9yd" x1="85.54" x2="103.6" y1="454.91" y2="468.45" gradientUnits="userSpaceOnUse"><stop offset="0" stop-color="#5387ec"/><stop offset="1" stop-color="#3b7af4"/></linearGradient><filter id="2j9yf" width="200%" height="200%" x="-50%" y="-50%"><feGaussianBlur in="SourceGraphic" result="FeGaussianBlur1094Out" stdDeviation="0 0"/></filter><mask id="2j9yg"><use fill="#fff" xlink:href="#2j9ya"/></mask><clipPath id="2j9yh"><use fill="#fff" xlink:href="#2j9ya"/></clipPath></defs><g><g transform="translate(-83 -454)"><g filter="url(#2j9yb)"><use fill="none" stroke-opacity=".15" stroke-width="0" mask="url(&quot;#2j9yc&quot;)" xlink:href="#2j9ya"/><use fill="#161d25" fill-opacity=".15" xlink:href="#2j9ya"/></g><use fill="url(#2j9yd)" xlink:href="#2j9ya"/><use fill="#fff" fill-opacity=".11" stroke="#fff" stroke-opacity=".11" stroke-width="2" filter="url(#2j9yf)" mask="url(&quot;#2j9yg&quot;)" xlink:href="#2j9ye"/><use fill="#fff" fill-opacity="0" stroke="#3670de" stroke-miterlimit="50" stroke-width="2" clip-path="url(&quot;#2j9yh&quot;)" xlink:href="#2j9ya"/></g></g></svg>