<?xml version="1.0" encoding="UTF-8"?>
<svg width="99px" height="100px" viewBox="0 0 99 100" version="1.1" xmlns="http://www.w3.org/2000/svg" xmlns:xlink="http://www.w3.org/1999/xlink">
    <!-- Generator: Sketch 53.2 (72643) - https://sketchapp.com -->
    <title>ILLUSTRATION</title>
    <desc>Created with Sketch.</desc>
    <defs>
        <path d="M52.3571429,3.14285714 L52.3571429,6.28571429 L55.5,6.28571429 L55.5,1.57142857 C55.5,0.703613271 54.7963867,0 53.9285714,0 L24.0714286,0 C23.2036133,0 22.5,0.703613271 22.5,1.57142857 L22.5,23.3562012 C22.5,24.2240165 23.2036133,24.9276297 24.0714286,24.9276297 L28.3387625,24.9276297 L28.3387625,31.4285714 C28.3387625,32.0566057 28.7128208,32.6244071 29.2898298,32.8726283 C29.4897112,32.9581822 29.7007185,33 29.9098075,33 C30.3049666,33 30.6943709,32.851144 30.9920829,32.5683943 L39.0406668,24.9276297 L39.7857143,24.9276297 L39.7857143,21.7847726 L38.4133999,21.7847726 C38.0109515,21.7847726 37.6234654,21.9393833 37.3315081,22.2163783 L31.4816197,27.7700893 L31.4816197,23.3562012 C31.4816197,22.4883859 30.7780064,21.7847726 29.9101911,21.7847726 L25.6428571,21.7847726 L25.6428571,3.14285714 L52.3571429,3.14285714 Z" id="path-1"></path>
        <filter x="-1.5%" y="-1.5%" width="103.0%" height="106.1%" filterUnits="objectBoundingBox" id="filter-2">
            <feOffset dx="0" dy="1" in="SourceAlpha" result="shadowOffsetOuter1"></feOffset>
            <feComposite in="shadowOffsetOuter1" in2="SourceAlpha" operator="out" result="shadowOffsetOuter1"></feComposite>
            <feColorMatrix values="0 0 0 0 0.0862745098   0 0 0 0 0.11372549   0 0 0 0 0.145098039  0 0 0 0.147616621 0" type="matrix" in="shadowOffsetOuter1"></feColorMatrix>
        </filter>
        <filter x="-3.0%" y="-3.0%" width="106.1%" height="109.1%" filterUnits="objectBoundingBox" id="filter-3">
            <feMorphology radius="1" operator="erode" in="SourceAlpha" result="shadowSpreadInner1"></feMorphology>
            <feOffset dx="0" dy="1" in="shadowSpreadInner1" result="shadowOffsetInner1"></feOffset>
            <feComposite in="shadowOffsetInner1" in2="SourceAlpha" operator="arithmetic" k2="-1" k3="1" result="shadowInnerInner1"></feComposite>
            <feColorMatrix values="0 0 0 0 1   0 0 0 0 1   0 0 0 0 1  0 0 0 0.106884058 0" type="matrix" in="shadowInnerInner1"></feColorMatrix>
        </filter>
        <path d="M50.2898298,41.8726283 C50.4897112,41.9581822 50.7007185,42 50.9098075,42 C51.3049666,42 51.6943709,41.851144 51.9920829,41.5683943 L60.0406668,33.9276297 L74.9285714,33.9276297 C75.7963867,33.9276297 76.5,33.2240165 76.5,32.3562012 L76.5,10.5714286 C76.5,9.70361327 75.7963867,9 74.9285714,9 L45.0714286,9 C44.2036133,9 43.5,9.70361327 43.5,10.5714286 L43.5,32.3562012 C43.5,33.2240165 44.2036133,33.9276297 45.0714286,33.9276297 L49.3387625,33.9276297 L49.3387625,40.4285714 C49.3387625,41.0566057 49.7128209,41.6244071 50.2898298,41.8726283 Z M46.6428571,30.7847726 L46.6428571,12.1428571 L73.3571429,12.1428571 L73.3571429,30.7847726 L59.4133999,30.7847726 C59.0109515,30.7847726 58.6234654,30.9393833 58.3315081,31.2163783 L52.4816197,36.7700893 L52.4816197,32.3562012 C52.4816197,31.4883859 51.7780064,30.7847726 50.9101911,30.7847726 L46.6428571,30.7847726 Z" id="path-4"></path>
        <filter x="-1.5%" y="-1.5%" width="103.0%" height="106.1%" filterUnits="objectBoundingBox" id="filter-5">
            <feOffset dx="0" dy="1" in="SourceAlpha" result="shadowOffsetOuter1"></feOffset>
            <feComposite in="shadowOffsetOuter1" in2="SourceAlpha" operator="out" result="shadowOffsetOuter1"></feComposite>
            <feColorMatrix values="0 0 0 0 0.0862745098   0 0 0 0 0.11372549   0 0 0 0 0.145098039  0 0 0 0.147616621 0" type="matrix" in="shadowOffsetOuter1"></feColorMatrix>
        </filter>
        <filter x="-3.0%" y="-3.0%" width="106.1%" height="109.1%" filterUnits="objectBoundingBox" id="filter-6">
            <feMorphology radius="1" operator="erode" in="SourceAlpha" result="shadowSpreadInner1"></feMorphology>
            <feOffset dx="0" dy="1" in="shadowSpreadInner1" result="shadowOffsetInner1"></feOffset>
            <feComposite in="shadowOffsetInner1" in2="SourceAlpha" operator="arithmetic" k2="-1" k3="1" result="shadowInnerInner1"></feComposite>
            <feColorMatrix values="0 0 0 0 1   0 0 0 0 1   0 0 0 0 1  0 0 0 0.106884058 0" type="matrix" in="shadowInnerInner1"></feColorMatrix>
        </filter>
        <path d="M98.9679938,22.2578508 C98.9559088,22.1987218 98.9340048,22.1438299 98.9154997,22.087367 C98.9022346,22.0469956 98.8940678,22.0044342 98.877687,21.9655861 C98.8538003,21.90879 98.8209915,21.8573259 98.7908263,21.8042432 C98.7715187,21.7702512 98.7566957,21.7334027 98.7349806,21.7010293 C98.699953,21.6488512 98.657042,21.6032428 98.616208,21.5558254 C98.5921797,21.5279272 98.5721168,21.4965536 98.5462002,21.4704645 C98.492526,21.4163821 98.4317708,21.3702024 98.3707323,21.3244989 C98.3522744,21.3106926 98.3366961,21.2933633 98.3176245,21.2804139 C98.2591824,21.2406138 98.1948394,21.2098591 98.1310629,21.1782951 C98.1049576,21.1653457 98.0816373,21.1480641 98.0547294,21.1365906 C97.9830222,21.106074 97.906547,21.0856978 97.8298359,21.0661786 C97.8076014,21.0605609 97.7873497,21.0505156 97.7647376,21.0458501 C97.6640925,21.025093 97.5598598,21.0141432 97.453125,21.0141432 L78.890625,21.0141432 L78.890625,24.1341716 L93.0489121,24.1341716 L49.2424393,59.4649133 L5.93862537,24.1341716 L20.4631906,24.1341716 C20.2361255,23.5827298 20.109375,22.9790145 20.109375,22.3456396 L20.109375,21.0141432 L1.76364896,21.0141432 C1.3089995,20.9504915 0.843728505,21.1035507 0.495577758,21.4357107 C0.474476295,21.4555156 0.453138778,21.4745587 0.433123066,21.4955062 C0.405507016,21.5249755 0.372367849,21.5461134 0.346687249,21.5782011 C0.324877704,21.6053852 0.313972854,21.6371396 0.294240375,21.6652758 C0.257938312,21.7160258 0.22777309,21.7704892 0.197655124,21.8256191 C0.171644112,21.8743695 0.140770807,21.9204539 0.120330246,21.9709659 C0.0769943109,22.0750842 0.0475844273,22.1858201 0.0274270992,22.2999838 C0.0256332656,22.3106955 0.0200628141,22.3207884 0.0185050336,22.3315478 C0.00642015,22.4103863 0,22.4915101 0,22.5741574 L0,97.4399858 C0,98.3014976 0.692619314,99 1.546875,99 L97.453125,99 C98.3073807,99 99,98.3014976 99,97.4399858 L99,22.5741574 C99,22.5726339 99,22.5707296 99,22.5692061 C98.9998112,22.5096487 98.9887176,22.4531858 98.9821086,22.3953898 C98.9768686,22.3496863 98.9770574,22.3023165 98.9679938,22.2578508 Z M95.90625,33.4794032 L89.71875,33.4794032 C88.8644943,33.4794032 88.171875,34.1779056 88.171875,35.0394174 C88.171875,35.9009291 88.8644943,36.5994316 89.71875,36.5994316 L95.90625,36.5994316 L95.90625,41.2794742 L79.6640625,41.2794742 C78.8098068,41.2794742 78.1171875,41.9779767 78.1171875,42.8394884 C78.1171875,43.7010002 78.8098068,44.3995026 79.6640625,44.3995026 L95.90625,44.3995026 L95.90625,49.0795453 L70.3828125,49.0795453 C69.5285568,49.0795453 68.8359375,49.7780477 68.8359375,50.6395595 C68.8359375,51.5010712 69.5285568,52.1995737 70.3828125,52.1995737 L95.90625,52.1995737 L95.90625,56.8796163 L61.1015625,56.8796163 C60.2473068,56.8796163 59.5546875,57.5781188 59.5546875,58.4396305 C59.5546875,59.3011423 60.2473068,59.9996447 61.1015625,59.9996447 L95.90625,59.9996447 L95.90625,64.6796874 L61.1015625,64.6796874 C60.2473068,64.6796874 59.5546875,65.3781898 59.5546875,66.2397016 C59.5546875,67.1012133 60.2473068,67.7997158 61.1015625,67.7997158 L95.90625,67.7997158 L95.90625,72.4797584 L70.3828125,72.4797584 C69.5285568,72.4797584 68.8359375,73.1782609 68.8359375,74.0397726 C68.8359375,74.9012844 69.5285568,75.5997868 70.3828125,75.5997868 L95.90625,75.5997868 L95.90625,80.2798295 L79.6640625,80.2798295 C78.8098068,80.2798295 78.1171875,80.9783319 78.1171875,81.8398437 C78.1171875,82.7013554 78.8098068,83.3998579 79.6640625,83.3998579 L95.90625,83.3998579 L95.90625,88.0799005 L89.71875,88.0799005 C88.8644943,88.0799005 88.171875,88.778403 88.171875,89.6399147 C88.171875,90.5014265 88.8644943,91.1999289 89.71875,91.1999289 L95.90625,91.1999289 L95.90625,95.8799716 L3.09375,95.8799716 L3.09375,91.1999289 L8.5078125,91.1999289 C9.36206819,91.1999289 10.0546875,90.5014265 10.0546875,89.6399147 C10.0546875,88.778403 9.36206819,88.0799005 8.5078125,88.0799005 L3.09375,88.0799005 L3.09375,83.3998579 L18.5625,83.3998579 C19.4167557,83.3998579 20.109375,82.7013554 20.109375,81.8398437 C20.109375,80.9783319 19.4167557,80.2798295 18.5625,80.2798295 L3.09375,80.2798295 L3.09375,75.5997868 L27.84375,75.5997868 C28.6980057,75.5997868 29.390625,74.9012844 29.390625,74.0397726 C29.390625,73.1782609 28.6980057,72.4797584 27.84375,72.4797584 L3.09375,72.4797584 L3.09375,67.7997158 L37.125,67.7997158 C37.9792557,67.7997158 38.671875,67.1012133 38.671875,66.2397016 C38.671875,65.3781898 37.9792557,64.6796874 37.125,64.6796874 L3.09375,64.6796874 L3.09375,59.9996447 L37.125,59.9996447 C37.9792557,59.9996447 38.671875,59.3011423 38.671875,58.4396305 C38.671875,57.5781188 37.9792557,56.8796163 37.125,56.8796163 L3.09375,56.8796163 L3.09375,52.1995737 L27.84375,52.1995737 C28.6980057,52.1995737 29.390625,51.5010712 29.390625,50.6395595 C29.390625,49.7780477 28.6980057,49.0795453 27.84375,49.0795453 L3.09375,49.0795453 L3.09375,44.3995026 L18.5625,44.3995026 C19.4167557,44.3995026 20.109375,43.7010002 20.109375,42.8394884 C20.109375,41.9779767 19.4167557,41.2794742 18.5625,41.2794742 L3.09375,41.2794742 L3.09375,36.5994316 L8.5078125,36.5994316 C9.36206819,36.5994316 10.0546875,35.9009291 10.0546875,35.0394174 C10.0546875,34.1779056 9.36206819,33.4794032 8.5078125,33.4794032 L3.09375,33.4794032 L3.09375,25.8259643 L48.2639351,62.6797766 C48.8289071,63.1410015 49.6355782,63.1436676 50.202816,62.6854895 L95.90625,25.8244409 L95.90625,33.4794032 Z" id="path-7"></path>
        <filter x="-0.5%" y="-0.6%" width="101.0%" height="102.6%" filterUnits="objectBoundingBox" id="filter-8">
            <feOffset dx="0" dy="1" in="SourceAlpha" result="shadowOffsetOuter1"></feOffset>
            <feComposite in="shadowOffsetOuter1" in2="SourceAlpha" operator="out" result="shadowOffsetOuter1"></feComposite>
            <feColorMatrix values="0 0 0 0 0.0862745098   0 0 0 0 0.11372549   0 0 0 0 0.145098039  0 0 0 0.147616621 0" type="matrix" in="shadowOffsetOuter1"></feColorMatrix>
        </filter>
        <filter x="-1.0%" y="-1.3%" width="102.0%" height="103.8%" filterUnits="objectBoundingBox" id="filter-9">
            <feMorphology radius="1" operator="erode" in="SourceAlpha" result="shadowSpreadInner1"></feMorphology>
            <feOffset dx="0" dy="1" in="shadowSpreadInner1" result="shadowOffsetInner1"></feOffset>
            <feComposite in="shadowOffsetInner1" in2="SourceAlpha" operator="arithmetic" k2="-1" k3="1" result="shadowInnerInner1"></feComposite>
            <feColorMatrix values="0 0 0 0 1   0 0 0 0 1   0 0 0 0 1  0 0 0 0.106884058 0" type="matrix" in="shadowInnerInner1"></feColorMatrix>
        </filter>
    </defs>
    <g id="Symbols" stroke="none" stroke-width="1" fill="none" fill-rule="evenodd">
        <g id="HOME/SELLING-POINTS" transform="translate(-842.000000, -49.000000)">
            <g id="SELLING-POINTS">
                <g id="SELLING-POINT-3" transform="translate(736.000000, 0.000000)">
                    <g id="ILLUSTRATION" transform="translate(106.000000, 49.000000)">
                        <g id="Shape">
                            <use fill="black" fill-opacity="1" filter="url(#filter-2)" xlink:href="#path-1"></use>
                            <use fill="#3B7AF4" fill-rule="evenodd" xlink:href="#path-1"></use>
                            <use fill="black" fill-opacity="1" filter="url(#filter-3)" xlink:href="#path-1"></use>
                            <path stroke="#215BCC" stroke-width="1" d="M52.8571429,5.78571429 L55,5.78571429 L55,1.57142857 C55,0.979755646 54.5202444,0.5 53.9285714,0.5 L24.0714286,0.5 C23.4797556,0.5 23,0.979755646 23,1.57142857 L23,23.3562012 C23,23.9478741 23.4797556,24.4276297 24.0714286,24.4276297 L28.8387625,24.4276297 L28.8387625,31.4285714 C28.8387625,31.8567522 29.0938336,32.2440112 29.4865763,32.4129646 C29.6215174,32.4707224 29.7653162,32.5 29.9098075,32.5 C30.1835488,32.5 30.4477678,32.3957864 30.6478358,32.2057733 L38.8411313,24.4276297 L39.2857143,24.4276297 L39.2857143,22.2847726 L38.4133999,22.2847726 C38.139046,22.2847726 37.8747276,22.3902239 37.6757628,22.578992 L30.9816197,28.9342134 L30.9816197,23.3562012 C30.9816197,22.7645282 30.501864,22.2847726 29.9101911,22.2847726 L25.1428571,22.2847726 L25.1428571,2.64285714 L52.8571429,2.64285714 L52.8571429,5.78571429 Z" stroke-linejoin="square"></path>
                        </g>
                        <g id="Shape">
                            <use fill="black" fill-opacity="1" filter="url(#filter-5)" xlink:href="#path-4"></use>
                            <use fill="#3B7AF4" fill-rule="evenodd" xlink:href="#path-4"></use>
                            <use fill="black" fill-opacity="1" filter="url(#filter-6)" xlink:href="#path-4"></use>
                            <path stroke="#215BCC" stroke-width="1" d="M50.4869964,41.4131442 C50.6218157,41.4707831 50.765466,41.5 50.9098075,41.5 C51.1835488,41.5 51.4477678,41.3957864 51.6478358,41.2057733 L59.8411313,33.4276297 L74.9285714,33.4276297 C75.5202444,33.4276297 76,32.9478741 76,32.3562012 L76,10.5714286 C76,9.97975565 75.5202444,9.5 74.9285714,9.5 L45.0714286,9.5 C44.4797556,9.5 44,9.97975565 44,10.5714286 L44,32.3562012 C44,32.9478741 44.4797556,33.4276297 45.0714286,33.4276297 L49.8387625,33.4276297 L49.8387625,40.4285714 C49.8387625,40.8566 50.0936524,41.243736 50.4869963,41.4131442 Z M50.4869963,41.4131442 C50.4871362,41.4132044 50.487276,41.4132646 50.4874158,41.4133248 L50.4865765,41.4129646 C50.4867164,41.4130245 50.4868564,41.4130844 50.4869964,41.4131442 Z M46.1428571,31.2847726 L46.1428571,11.6428571 L73.8571429,11.6428571 L73.8571429,31.2847726 L59.4133999,31.2847726 C59.139046,31.2847726 58.8747276,31.3902239 58.6757628,31.578992 L51.9816197,37.9342134 L51.9816197,32.3562012 C51.9816197,31.7645282 51.501864,31.2847726 50.9101911,31.2847726 L46.1428571,31.2847726 Z" stroke-linejoin="square"></path>
                        </g>
                        <g id="Shape">
                            <use fill="black" fill-opacity="1" filter="url(#filter-8)" xlink:href="#path-7"></use>
                            <use fill="#3B7AF4" fill-rule="evenodd" xlink:href="#path-7"></use>
                            <use fill="black" fill-opacity="1" filter="url(#filter-9)" xlink:href="#path-7"></use>
                            <path stroke="#215BCC" stroke-width="1" d="M-0.451447283,22.1568665 C-0.450751319,22.1550226 -0.449999576,22.1530675 -0.449168092,22.150905 C-0.449158893,22.1508786 -0.449154293,22.1508654 -0.44914983,22.1508525 C-0.450006994,22.1527044 -0.450580909,22.1539613 -0.451447283,22.1568665 Z M98.3612902,20.7346237 C98.3601983,20.7340754 98.3574097,20.7325958 98.3528452,20.7301739 C98.3544315,20.7309583 98.3556795,20.7315753 98.3567366,20.7320979 Z M98.4771071,22.3536196 C98.4748862,22.3449546 98.470003,22.3297559 98.4584529,22.2963527 C98.4580698,22.2952448 98.4580698,22.2952448 98.4576819,22.2941232 C98.4497468,22.2711907 98.4497468,22.2711907 98.4404847,22.2434463 C98.4274887,22.2015866 98.4274887,22.2015866 98.4200263,22.1742926 C98.4198178,22.1735337 98.4198178,22.1735337 98.4196137,22.1727903 C98.4116586,22.1452054 98.4140612,22.1529553 98.4167896,22.1594253 C98.4126896,22.1496767 98.4047217,22.1349295 98.3803816,22.0932363 C98.3801833,22.0928967 98.3801833,22.0928967 98.3799843,22.0925558 C98.3689329,22.0736303 98.3689329,22.0736303 98.356065,22.0511897 C98.3345937,22.011747 98.3345937,22.011747 98.3223515,21.9871253 C98.32223,21.9868821 98.32223,21.9868821 98.3221096,21.9866411 C98.310791,21.9647404 98.3147759,21.9721041 98.3196097,21.9793572 C98.3120342,21.9683013 98.2999606,21.9536871 98.2670271,21.9161566 C98.2665716,21.9156375 98.2665716,21.9156375 98.2661135,21.9151154 C98.2526626,21.8997883 98.2526626,21.8997883 98.2373562,21.8821248 C98.2082627,21.8469877 98.2082627,21.8469877 98.1919453,21.8255857 C98.1917038,21.8252705 98.1917038,21.8252705 98.191466,21.82496 C98.1781288,21.8081005 98.1839416,21.8151855 98.1907344,21.8220935 C98.1669138,21.7983631 98.1368619,21.7740147 98.0712477,21.7248849 C98.0383709,21.6986987 98.0320074,21.6936302 98.0218656,21.684553 C98.0038191,21.6737281 97.9774707,21.6600756 97.9265597,21.6349513 C97.926038,21.6346939 97.926038,21.6346939 97.9255148,21.6344357 C97.9175613,21.6305107 97.9175613,21.6305107 97.9088755,21.6262156 C97.8660211,21.6035561 97.8646439,21.6028279 97.845086,21.591081 C97.8158714,21.5799289 97.776684,21.5685864 97.7073563,21.5509453 C97.6643234,21.5385598 97.6562937,21.5362488 97.6429211,21.5314719 C97.580803,21.519984 97.5173897,21.5141432 97.453125,21.5141432 L79.390625,21.5141432 L79.390625,23.6341716 L94.4653126,23.6341716 L49.2406217,60.1087328 L4.53486301,23.6341716 L19.7714402,23.6341716 C19.6644182,23.2163545 19.609375,22.784393 19.609375,22.3456396 L19.609375,21.514012 L1.69432421,21.5093139 C1.39131885,21.4668926 1.07853966,21.5705833 0.837752651,21.8002876 C0.831727302,21.8059284 0.831727302,21.8059284 0.826272949,21.8109996 C0.821686598,21.8152565 0.821686598,21.8152565 0.817563715,21.8190804 C0.79962014,21.8358555 0.79962014,21.8358555 0.797962154,21.8374016 C0.763954507,21.8711906 0.753570171,21.8815081 0.741554037,21.892203 C0.734299053,21.9043684 0.723804582,21.9206503 0.700909678,21.9561712 C0.685456696,21.9777743 0.669588237,22.0046669 0.638791101,22.0609891 C0.619707634,22.0958422 0.619707634,22.0958422 0.604974826,22.1213648 C0.602568537,22.1255357 0.602568537,22.1255357 0.600335533,22.1294097 C0.587503012,22.1516865 0.583519123,22.1592654 0.581942225,22.163097 C0.555732038,22.2260693 0.535139594,22.3001056 0.520560156,22.3825658 C0.51557999,22.4043427 0.512021445,22.4199033 0.509296705,22.4315032 C0.503130915,22.4786708 0.5,22.5263309 0.5,22.5741574 L0.5,97.4399858 C0.5,98.0262974 0.969712804,98.5 1.546875,98.5 L97.453125,98.5 C98.0302872,98.5 98.5,98.0262974 98.5,97.4399858 L98.5,22.5741574 C98.5,22.5729671 98.5,22.5729671 98.5,22.5716815 C98.5,22.5703962 98.5,22.5703962 98.5000025,22.5707911 C98.4999853,22.5653521 98.4987383,22.5531719 98.4935646,22.5156521 C98.4934512,22.5148301 98.4934512,22.5148301 98.4933367,22.5139997 C98.4895985,22.486975 98.4895985,22.486975 98.4853628,22.4523423 C98.4810466,22.4089515 98.4810466,22.4089515 98.4790446,22.3797779 C98.4790192,22.379414 98.4790192,22.379414 98.478994,22.379053 C98.4775685,22.3614592 98.4770834,22.3549983 98.4771071,22.3536196 Z M98.3196097,21.9793572 C98.3196884,21.9794753 98.3197673,21.9795934 98.3198464,21.9797113 C98.3196087,21.9793572 98.3193654,21.9789985 98.319116,21.9786346 Z M98.1907344,21.8220935 C98.1909256,21.822288 98.1911176,21.8224823 98.1913099,21.8226759 C98.1907888,21.8221508 98.1902642,21.8216252 98.1897356,21.8210987 Z M0.498209475,22.4717339 C0.497344796,22.474105 0.496395156,22.4766155 0.495289196,22.4795392 C0.495270797,22.4795921 0.495270797,22.4795921 0.495252324,22.4796451 C0.496363701,22.4773071 0.497072521,22.4758159 0.498209475,22.4717339 Z M96.40625,33.9794032 L89.71875,33.9794032 C89.1415878,33.9794032 88.671875,34.4531057 88.671875,35.0394174 C88.671875,35.625729 89.1415878,36.0994316 89.71875,36.0994316 L96.40625,36.0994316 L96.40625,41.7794742 L79.6640625,41.7794742 C79.0869003,41.7794742 78.6171875,42.2531768 78.6171875,42.8394884 C78.6171875,43.4258001 79.0869003,43.8995026 79.6640625,43.8995026 L96.40625,43.8995026 L96.40625,49.5795453 L70.3828125,49.5795453 C69.8056503,49.5795453 69.3359375,50.0532478 69.3359375,50.6395595 C69.3359375,51.2258711 69.8056503,51.6995737 70.3828125,51.6995737 L96.40625,51.6995737 L96.40625,57.3796163 L61.1015625,57.3796163 C60.5244003,57.3796163 60.0546875,57.8533189 60.0546875,58.4396305 C60.0546875,59.0259422 60.5244003,59.4996447 61.1015625,59.4996447 L96.40625,59.4996447 L96.40625,65.1796874 L61.1015625,65.1796874 C60.5244003,65.1796874 60.0546875,65.6533899 60.0546875,66.2397016 C60.0546875,66.8260132 60.5244003,67.2997158 61.1015625,67.2997158 L96.40625,67.2997158 L96.40625,72.9797584 L70.3828125,72.9797584 C69.8056503,72.9797584 69.3359375,73.453461 69.3359375,74.0397726 C69.3359375,74.6260843 69.8056503,75.0997868 70.3828125,75.0997868 L96.40625,75.0997868 L96.40625,80.7798295 L79.6640625,80.7798295 C79.0869003,80.7798295 78.6171875,81.253532 78.6171875,81.8398437 C78.6171875,82.4261553 79.0869003,82.8998579 79.6640625,82.8998579 L96.40625,82.8998579 L96.40625,88.5799005 L89.71875,88.5799005 C89.1415878,88.5799005 88.671875,89.0536031 88.671875,89.6399147 C88.671875,90.2262264 89.1415878,90.6999289 89.71875,90.6999289 L96.40625,90.6999289 L96.40625,96.3799716 L2.59375,96.3799716 L2.59375,90.6999289 L8.5078125,90.6999289 C9.0849747,90.6999289 9.5546875,90.2262264 9.5546875,89.6399147 C9.5546875,89.0536031 9.0849747,88.5799005 8.5078125,88.5799005 L2.59375,88.5799005 L2.59375,82.8998579 L18.5625,82.8998579 C19.1396622,82.8998579 19.609375,82.4261553 19.609375,81.8398437 C19.609375,81.253532 19.1396622,80.7798295 18.5625,80.7798295 L2.59375,80.7798295 L2.59375,75.0997868 L27.84375,75.0997868 C28.4209122,75.0997868 28.890625,74.6260843 28.890625,74.0397726 C28.890625,73.453461 28.4209122,72.9797584 27.84375,72.9797584 L2.59375,72.9797584 L2.59375,67.2997158 L37.125,67.2997158 C37.7021622,67.2997158 38.171875,66.8260132 38.171875,66.2397016 C38.171875,65.6533899 37.7021622,65.1796874 37.125,65.1796874 L2.59375,65.1796874 L2.59375,59.4996447 L37.125,59.4996447 C37.7021622,59.4996447 38.171875,59.0259422 38.171875,58.4396305 C38.171875,57.8533189 37.7021622,57.3796163 37.125,57.3796163 L2.59375,57.3796163 L2.59375,51.6995737 L27.84375,51.6995737 C28.4209122,51.6995737 28.890625,51.2258711 28.890625,50.6395595 C28.890625,50.0532478 28.4209122,49.5795453 27.84375,49.5795453 L2.59375,49.5795453 L2.59375,43.8995026 L18.5625,43.8995026 C19.1396622,43.8995026 19.609375,43.4258001 19.609375,42.8394884 C19.609375,42.2531768 19.1396622,41.7794742 18.5625,41.7794742 L2.59375,41.7794742 L2.59375,36.0994316 L8.5078125,36.0994316 C9.0849747,36.0994316 9.5546875,35.625729 9.5546875,35.0394174 C9.5546875,34.4531057 9.0849747,33.9794032 8.5078125,33.9794032 L2.59375,33.9794032 L2.59375,24.7727155 L3.40983628,25.4385505 L48.5801329,62.2924538 C48.9620297,62.604222 49.5056481,62.6058811 49.888922,62.2962973 L96.40625,24.7788213 L96.40625,33.9794032 Z" stroke-linejoin="square"></path>
                        </g>
                    </g>
                </g>
            </g>
        </g>
    </g>
</svg>